{
  "accessors": [
    {
      "bufferView": 2,
      "componentType": 5126,
      "count": 92,
      "max": [
        2.567229986190796,
        5.165309906005859,
        4.464620113372803
      ],
      "min": [
        -87.17633819580078,
        -1.0,
        -1.0
      ],
      "type": "VEC3"
    },
    {
      "bufferView": 2,
      "byteOffset": 1104,
      "componentType": 5126,
      "count": 92,
      "max": [
        1.0,
        0.9993550181388855,
        1.0
      ],
      "min": [
        -1.0,
        -0.9993550181388855,
        -1.0
      ],
      "type": "VEC3"
    },
    {
      "bufferView": 3,
      "componentType": 5126,
      "count": 92,
      "max": [
        1.0,
        0.9993678331375122,
        0.03619925677776337,
        1.0
      ],
      "min": [
        -1.0,
        -0.9993680715560913,
        -0.03606126829981804,
        -1.0
      ],
      "type": "VEC4"
    },
    {
      "bufferView": 1,
      "componentType": 5126,
      "count": 92,
      "max": [
        0.768809974193573,
        0.8469399809837341
      ],
      "min": [
        0.6706399917602539,
        0.748769998550415
      ],
      "type": "VEC2"
    },
    {
      "bufferView": 0,
      "componentType": 5125,
      "count": 168,
      "type": "SCALAR"
    },
    {
      "bufferView": 2,
      "byteOffset": 2208,
      "componentType": 5126,
      "count": 112,
      "max": [
        0.6841999888420105,
        1.2631299495697021,
        0.4990200102329254
      ],
      "min": [
        -0.5774099826812744,
        -0.02498999983072281,
        -6.531889915466309
      ],
      "type": "VEC3"
    },
    {
      "bufferView": 2,
      "byteOffset": 3552,
      "componentType": 5126,
      "count": 112,
      "max": [
        0.9837396144866943,
        0.9996243119239807,
        0.9994497895240784
      ],
      "min": [
        -0.971502423286438,
        -0.9993522763252258,
        -0.9994693398475647
      ],
      "type": "VEC3"
    },
    {
      "bufferView": 3,
      "byteOffset": 1472,
      "componentType": 5126,
      "count": 112,
      "max": [
        0.45566150546073914,
        0.9981909394264221,
        0.9579389691352844,
        1.0
      ],
      "min": [
        -0.7274935245513916,
        -0.9812981486320496,
        -0.9996465444564819,
        -1.0
      ],
      "type": "VEC4"
    },
    {
      "bufferView": 1,
      "byteOffset": 736,
      "componentType": 5126,
      "count": 112,
      "max": [
        0.7931399941444397,
        0.9920799732208252
      ],
      "min": [
        0.6669999957084656,
        0.8659399747848511
      ],
      "type": "VEC2"
    },
    {
      "bufferView": 0,
      "byteOffset": 672,
      "componentType": 5125,
      "count": 288,
      "type": "SCALAR"
    },
    {
      "bufferView": 2,
      "byteOffset": 4896,
      "componentType": 5126,
      "count": 144,
      "max": [
        0.298799991607666,
        1.2763700485229492,
        0.5780199766159058
      ],
      "min": [
        -7.203460216522217,
        -0.09836000204086304,
        -0.5780199766159058
      ],
      "type": "VEC3"
    },
    {
      "bufferView": 2,
      "byteOffset": 6624,
      "componentType": 5126,
      "count": 144,
      "max": [
        1.0,
        1.0,
        1.0
      ],
      "min": [
        -1.0,
        -1.0,
        -1.0
      ],
      "type": "VEC3"
    },
    {
      "bufferView": 3,
      "byteOffset": 3264,
      "componentType": 5126,
      "count": 144,
      "max": [
        0.9705750942230225,
        0.5792113542556763,
        0.2968188226222992,
        1.0
      ],
      "min": [
        -0.998378574848175,
        -1.0,
        -0.29680123925209045,
        -1.0
      ],
      "type": "VEC4"
    },
    {
      "bufferView": 1,
      "byteOffset": 1632,
      "componentType": 5126,
      "count": 144,
      "max": [
        0.9891300201416016,
        0.9519199728965759
      ],
      "min": [
        0.779770016670227,
        0.7425699830055237
      ],
      "type": "VEC2"
    },
    {
      "bufferView": 0,
      "byteOffset": 1824,
      "componentType": 5125,
      "count": 384,
      "type": "SCALAR"
    },
    {
      "bufferView": 2,
      "byteOffset": 8352,
      "componentType": 5126,
      "count": 732,
      "max": [
        0.9749299883842468,
        1.0,
        0.8892899751663208
      ],
      "min": [
        -0.9749299883842468,
        -1.0,
        -4.369919776916504
      ],
      "type": "VEC3"
    },
    {
      "bufferView": 2,
      "byteOffset": 17136,
      "componentType": 5126,
      "count": 732,
      "max": [
        0.9749294519424438,
        1.0,
        1.0
      ],
      "min": [
        -0.9749294519424438,
        -1.0,
        -1.0
      ],
      "type": "VEC3"
    },
    {
      "bufferView": 3,
      "byteOffset": 5568,
      "componentType": 5126,
      "count": 732,
      "max": [
        0.7592313885688782,
        0.9999998211860657,
        0.9952942132949829,
        1.0
      ],
      "min": [
        -0.5307713747024536,
        -0.3332313597202301,
        -0.9952941536903381,
        -1.0
      ],
      "type": "VEC4"
    },
    {
      "bufferView": 1,
      "byteOffset": 2784,
      "componentType": 5126,
      "count": 732,
      "max": [
        0.9845899939537048,
        0.9977200031280518
      ],
      "min": [
        0.008220000192523003,
        0.01875999942421913
      ],
      "type": "VEC2"
    },
    {
      "bufferView": 0,
      "byteOffset": 3360,
      "componentType": 5125,
      "count": 2664,
      "type": "SCALAR"
    },
    {
      "bufferView": 2,
      "byteOffset": 25920,
      "componentType": 5126,
      "count": 732,
      "max": [
        0.9749299883842468,
        1.0,
        0.8892899751663208
      ],
      "min": [
        -0.9749299883842468,
        -1.0,
        -4.369919776916504
      ],
      "type": "VEC3"
    },
    {
      "bufferView": 2,
      "byteOffset": 34704,
      "componentType": 5126,
      "count": 732,
      "max": [
        0.9749294519424438,
        1.0,
        1.0
      ],
      "min": [
        -0.9749294519424438,
        -1.0,
        -1.0
      ],
      "type": "VEC3"
    },
    {
      "bufferView": 3,
      "byteOffset": 17280,
      "componentType": 5126,
      "count": 732,
      "max": [
        0.7592407464981079,
        0.9999998211860657,
        0.9952942132949829,
        1.0
      ],
      "min": [
        -0.5307713747024536,
        -0.3332313597202301,
        -0.9952941536903381,
        -1.0
      ],
      "type": "VEC4"
    },
    {
      "bufferView": 1,
      "byteOffset": 8640,
      "componentType": 5126,
      "count": 732,
      "max": [
        0.9845899939537048,
        0.9977200031280518
      ],
      "min": [
        0.008220000192523003,
        0.01875999942421913
      ],
      "type": "VEC2"
    },
    {
      "bufferView": 0,
      "byteOffset": 14016,
      "componentType": 5125,
      "count": 2664,
      "type": "SCALAR"
    },
    {
      "bufferView": 2,
      "byteOffset": 43488,
      "componentType": 5126,
      "count": 890,
      "max": [
        2.800950050354004,
        0.7979400157928467,
        4.840929985046387
      ],
      "min": [
        -2.800950050354004,
        -0.7212600111961365,
        -0.6432300209999084
      ],
      "type": "VEC3"
    },
    {
      "bufferView": 2,
      "byteOffset": 54168,
      "componentType": 5126,
      "count": 890,
      "max": [
        1.0,
        1.0,
        1.0
      ],
      "min": [
        -1.0,
        -1.0,
        -1.0
      ],
      "type": "VEC3"
    },
    {
      "bufferView": 3,
      "byteOffset": 28992,
      "componentType": 5126,
      "count": 890,
      "max": [
        1.0,
        1.0,
        1.0,
        1.0
      ],
      "min": [
        -1.0,
        -1.0,
        -0.9995148181915283,
        1.0
      ],
      "type": "VEC4"
    },
    {
      "bufferView": 1,
      "byteOffset": 14496,
      "componentType": 5126,
      "count": 890,
      "max": [
        0.8829699754714966,
        0.7650700211524963
      ],
      "min": [
        0.0076500000432133675,
        0.0053400001488626
      ],
      "type": "VEC2"
    },
    {
      "bufferView": 0,
      "byteOffset": 24672,
      "componentType": 5125,
      "count": 2133,
      "type": "SCALAR"
    },
    {
      "bufferView": 2,
      "byteOffset": 64848,
      "componentType": 5126,
      "count": 80,
      "max": [
        0.42166998982429504,
        0.42166998982429504,
        0.39289000630378723
      ],
      "min": [
        -0.42166998982429504,
        -0.42166998982429504,
        -0.42083999514579773
      ],
      "type": "VEC3"
    },
    {
      "bufferView": 2,
      "byteOffset": 65808,
      "componentType": 5126,
      "count": 80,
      "max": [
        0.9971752166748047,
        0.9971752166748047,
        1.0
      ],
      "min": [
        -0.9971752166748047,
        -0.9971752166748047,
        0.07511099427938461
      ],
      "type": "VEC3"
    },
    {
      "bufferView": 3,
      "byteOffset": 43232,
      "componentType": 5126,
      "count": 80,
      "max": [
        0.9976069927215576,
        0.9995164275169373,
        0.9940496683120728,
        1.0
      ],
      "min": [
        -0.9999992847442627,
        -0.997607946395874,
        -0.8522434234619141,
        1.0
      ],
      "type": "VEC4"
    },
    {
      "bufferView": 1,
      "byteOffset": 21616,
      "componentType": 5126,
      "count": 80,
      "max": [
        0.8938199877738953,
        0.3499799966812134
      ],
      "min": [
        0.7558299899101257,
        0.21199999749660492
      ],
      "type": "VEC2"
    },
    {
      "bufferView": 0,
      "byteOffset": 33204,
      "componentType": 5125,
      "count": 210,
      "type": "SCALAR"
    },
    {
      "bufferView": 2,
      "byteOffset": 66768,
      "componentType": 5126,
      "count": 260,
      "max": [
        1.0,
        1.0,
        1.2794699668884277
      ],
      "min": [
        -1.0,
        -1.0,
        -0.08715000003576279
      ],
      "type": "VEC3"
    },
    {
      "bufferView": 2,
      "byteOffset": 69888,
      "componentType": 5126,
      "count": 260,
      "max": [
        1.0,
        1.0,
        1.0
      ],
      "min": [
        -1.0,
        -1.0,
        -1.0
      ],
      "type": "VEC3"
    },
    {
      "bufferView": 3,
      "byteOffset": 44512,
      "componentType": 5126,
      "count": 260,
      "max": [
        0.9999924898147583,
        0.999989926815033,
        0.9999932646751404,
        1.0
      ],
      "min": [
        -0.9999924898147583,
        -0.999989926815033,
        -1.0,
        1.0
      ],
      "type": "VEC4"
    },
    {
      "bufferView": 1,
      "byteOffset": 22256,
      "componentType": 5126,
      "count": 260,
      "max": [
        0.898930013179779,
        0.19968000054359436
      ],
      "min": [
        0.7603999972343445,
        0.06094999983906746
      ],
      "type": "VEC2"
    },
    {
      "bufferView": 0,
      "byteOffset": 34044,
      "componentType": 5125,
      "count": 696,
      "type": "SCALAR"
    }
  ],
  "asset": {
    "extras": {
      "author": "BlueMesh (https://sketchfab.com/VapTor)",
      "license": "CC-BY-NC-4.0 (http://creativecommons.org/licenses/by-nc/4.0/)",
      "source": "https://sketchfab.com/3d-models/airport-vehicle---truck-0f64404ef29b49878567c3d5eb2629ea",
      "title": "Airport Vehicle _ Truck"
    },
    "generator": "Sketchfab-12.67.0",
    "version": "2.0"
  },
  "bufferViews": [
    {
      "buffer": 0,
      "byteLength": 36828,
      "name": "floatBufferViews",
      "target": 34963
    },
    {
      "buffer": 0,
      "byteLength": 24336,
      "byteOffset": 36828,
      "byteStride": 8,
      "name": "floatBufferViews",
      "target": 34962
    },
    {
      "buffer": 0,
      "byteLength": 73008,
      "byteOffset": 61164,
      "byteStride": 12,
      "name": "floatBufferViews",
      "target": 34962
    },
    {
      "buffer": 0,
      "byteLength": 48672,
      "byteOffset": 134172,
      "byteStride": 16,
      "name": "floatBufferViews",
      "target": 34962
    }
  ],
  "buffers": [
    {
      "byteLength": 182844,
      "uri": "scene.bin"
    }
  ],
  "images": [
    {
      "uri": "textures/material_baseColor.png"
    },
    {
      "uri": "textures/material_metallicRoughness.png"
    },
    {
      "uri": "textures/material_normal.png"
    }
  ],
  "materials": [
    {
      "doubleSided": true,
      "name": "material",
      "normalTexture": {
        "index": 2
      },
      "occlusionTexture": {
        "index": 1
      },
      "pbrMetallicRoughness": {
        "baseColorTexture": {
          "index": 0
        },
        "metallicRoughnessTexture": {
          "index": 1
        }
      }
    }
  ],
  "meshes": [
    {
      "name": "Cube.001_0",
      "primitives": [
        {
          "attributes": {
            "NORMAL": 1,
            "POSITION": 0,
            "TANGENT": 2,
            "TEXCOORD_0": 3
          },
          "indices": 4,
          "material": 0,
          "mode": 4
        }
      ]
    },
    {
      "name": "BezierCurve_0",
      "primitives": [
        {
          "attributes": {
            "NORMAL": 6,
            "POSITION": 5,
            "TANGENT": 7,
            "TEXCOORD_0": 8
          },
          "indices": 9,
          "material": 0,
          "mode": 4
        }
      ]
    },
    {
      "name": "Cube.002_0",
      "primitives": [
        {
          "attributes": {
            "NORMAL": 11,
            "POSITION": 10,
            "TANGENT": 12,
            "TEXCOORD_0": 13
          },
          "indices": 14,
          "material": 0,
          "mode": 4
        }
      ]
    },
    {
      "name": "Circle.001_0",
      "primitives": [
        {
          "attributes": {
            "NORMAL": 16,
            "POSITION": 15,
            "TANGENT": 17,
            "TEXCOORD_0": 18
          },
          "indices": 19,
          "material": 0,
          "mode": 4
        }
      ]
    },
    {
      "name": "Circle.002_0",
      "primitives": [
        {
          "attributes": {
            "NORMAL": 21,
            "POSITION": 20,
            "TANGENT": 22,
            "TEXCOORD_0": 23
          },
          "indices": 24,
          "material": 0,
          "mode": 4
        }
      ]
    },
    {
      "name": "Cube_0",
      "primitives": [
        {
          "attributes": {
            "NORMAL": 26,
            "POSITION": 25,
            "TANGENT": 27,
            "TEXCOORD_0": 28
          },
          "indices": 29,
          "material": 0,
          "mode": 4
        }
      ]
    },
    {
      "name": "Circle_0",
      "primitives": [
        {
          "attributes": {
            "NORMAL": 31,
            "POSITION": 30,
            "TANGENT": 32,
            "TEXCOORD_0": 33
          },
          "indices": 34,
          "material": 0,
          "mode": 4
        }
      ]
    },
    {
      "name": "Plane_0",
      "primitives": [
        {
          "attributes": {
            "NORMAL": 36,
            "POSITION": 35,
            "TANGENT": 37,
            "TEXCOORD_0": 38
          },
          "indices": 39,
          "material": 0,
          "mode": 4
        }
      ]
    }
  ],
  "nodes": [
    {
      "children": [
        1
      ],
      "matrix": [
        1.0,
        0.0,
        0.0,
        0.0,
        0.0,
        2.220446049250313e-16,
        -1.0,
        0.0,
        0.0,
        1.0,
        2.220446049250313e-16,
        0.0,
        0.0,
        0.0,
        0.0,
        1.0
      ],
      "name": "Sketchfab_model"
    },
    {
      "children": [
        2,
        4,
        6,
        10,
        12,
        14,
        18
      ],
      "name": "Root"
    },
    {
      "children": [
        3
      ],
      "matrix": [
        -0.29086000000000006,
        0.9551700000000001,
        -0.05519000000000001,
        0.0,
        -0.7711,
        -0.19988000000000003,
        0.6045200000000001,
        0.0,
        0.5663900000000001,
        0.21839000000000003,
        0.7946700000000001,
        0.0,
        4.076250000000001,
        1.00545,
        5.903860000000001,
        1.0
      ],
      "name": "Lamp"
    },
    {
      "name": "Lamp"
    },
    {
      "children": [
        5
      ],
      "matrix": [
        0.06729000000000003,
        0.0,
        0.0,
        0.0,
        0.0,
        0.06729000000000003,
        0.0,
        0.0,
        0.0,
        0.0,
        0.06729000000000003,
        0.0,
        2.8466899999999997,
        -4.697679999999999,
        2.7444100000000002,
        1.0
      ],
      "name": "Cube.001"
    },
    {
      "mesh": 0,
      "name": "Cube.001_0"
    },
    {
      "children": [
        7,
        8
      ],
      "matrix": [
        0.0,
        0.0,
        -1.0,
        0.0,
        -0.15601000000000004,
        0.98776,
        -0.0,
        0.0,
        0.98776,
        0.15601000000000004,
        0.0,
        0.0,
        3.06612,
        -4.619929999999999,
        3.5276300000000003,
        1.0
      ],
      "name": "BezierCurve"
    },
    {
      "mesh": 1,
      "name": "BezierCurve_0"
    },
    {
      "children": [
        9
      ],
      "matrix": [
        0.0,
        -0.0,
        1.0,
        0.0,
        0.0,
        1.0,
        0.0,
        0.0,
        -1.0,
        -0.0,
        -0.0,
        0.0,
        -0.48534000000000005,
        0.25578,
        0.47498000000000007,
        1.0
      ],
      "name": "Cube.002"
    },
    {
      "mesh": 2,
      "name": "Cube.002_0"
    },
    {
      "children": [
        11
      ],
      "matrix": [
        -0.0,
        -0.0,
        -1.07026,
        0.0,
        -0.0,
        1.07026,
        -0.0,
        0.0,
        1.07026,
        0.0,
        -0.0,
        0.0,
        1.86259,
        -1.1498899999999999,
        0.7987500000000001,
        1.0
      ],
      "name": "Circle.001"
    },
    {
      "mesh": 3,
      "name": "Circle.001_0"
    },
    {
      "children": [
        13
      ],
      "matrix": [
        -0.0,
        -0.0,
        -1.07026,
        0.0,
        -0.0,
        1.07026,
        -0.0,
        0.0,
        1.07026,
        0.0,
        -0.0,
        0.0,
        1.86259,
        2.9865399999999998,
        0.7987500000000001,
        1.0
      ],
      "name": "Circle.002"
    },
    {
      "mesh": 4,
      "name": "Circle.002_0"
    },
    {
      "children": [
        15,
        16
      ],
      "matrix": [
        1.0,
        0.0,
        0.0,
        0.0,
        0.0,
        7.0008799999999995,
        0.0,
        0.0,
        0.0,
        0.0,
        1.0,
        0.0,
        0.0,
        0.0,
        0.99875,
        1.0
      ],
      "name": "Cube"
    },
    {
      "mesh": 5,
      "name": "Cube_0"
    },
    {
      "children": [
        17
      ],
      "matrix": [
        0.6876100000000002,
        0.0,
        0.0,
        0.0,
        0.0,
        0.09822000000000004,
        0.0,
        0.0,
        0.0,
        0.0,
        0.6876100000000002,
        0.0,
        -2.13022,
        -0.07974000000000002,
        5.110879999999999,
        1.0
      ],
      "name": "Circle"
    },
    {
      "mesh": 6,
      "name": "Circle_0"
    },
    {
      "children": [
        19
      ],
      "matrix": [
        0.35154,
        0.0,
        -0.0,
        0.0,
        0.0,
        -0.0,
        0.5827800000000001,
        0.0,
        0.0,
        -0.5827800000000001,
        -0.0,
        0.0,
        0.0,
        -4.804169999999999,
        0.93983,
        1.0
      ],
      "name": "Plane"
    },
    {
      "mesh": 7,
      "name": "Plane_0"
    }
  ],
  "samplers": [
    {
      "magFilter": 9729,
      "minFilter": 9987,
      "wrapS": 10497,
      "wrapT": 10497
    }
  ],
  "scene": 0,
  "scenes": [
    {
      "name": "Sketchfab_Scene",
      "nodes": [
        0
      ]
    }
  ],
  "textures": [
    {
      "sampler": 0,
      "source": 0
    },
    {
      "sampler": 0,
      "source": 1
    },
    {
      "sampler": 0,
      "source": 2
    }
  ]
}
